<svg xmlns="http://www.w3.org/2000/svg" viewBox="0 0 447.48 90.72"><defs><style>.cls-1{fill:#fff;}</style></defs><title>platzi-video_logo</title><g id="Capa_2" data-name="Capa 2"><g id="Capa_1-2" data-name="Capa 1"><path class="cls-1" d="M113.12,43.21,94.82,32.37a2.49,2.49,0,0,0-3.77,2.15V56.19a2.5,2.5,0,0,0,3.77,2.15l18.3-10.83A2.5,2.5,0,0,0,113.12,43.21Z"/><path class="cls-1" d="M97.67,0H47.62a5.18,5.18,0,1,0,0,10.36H59A7.16,7.16,0,0,1,66.2,16.9a7,7,0,0,1-7,7.46H33.84a7,7,0,0,0,0,14H49a7.16,7.16,0,0,1,7.22,6.53,7,7,0,0,1-7,7.47H25.21a7,7,0,0,0,0,14H59a7.15,7.15,0,0,1,7.21,6.53,7,7,0,0,1-7,7.46h-4a5.19,5.19,0,0,0,0,10.37H97.67A45.33,45.33,0,0,0,143,45.36h0A45.33,45.33,0,0,0,97.67,0ZM101,76.72a31.36,31.36,0,1,1,31.32-31.36A31.35,31.35,0,0,1,101,76.72Z"/><path class="cls-1" d="M187.47,29.88q-3.3-2.94-9.36-2.94h-13a3.52,3.52,0,0,0-2.51.87,3.47,3.47,0,0,0-1,2.4l-2.51,32a3.36,3.36,0,0,0,.76,2.59,3.16,3.16,0,0,0,2.46,1,3.7,3.7,0,0,0,2.65-1,3.75,3.75,0,0,0,1.12-2.54L167,50.46h9.94q6.66,0,10.26-3.22t3.6-9.28A10.29,10.29,0,0,0,187.47,29.88ZM176.31,45.06h-8.9l1-12.66h8.9q6.83,0,6.82,5.89Q184.11,45.05,176.31,45.06Z"/><path class="cls-1" d="M200.6,26.66a3.92,3.92,0,0,0-2.46.8A3,3,0,0,0,197,29.83l-2.62,32.64a2.82,2.82,0,0,0,.81,2.46,3.54,3.54,0,0,0,2.41.82,3.87,3.87,0,0,0,2.45-.82,3.28,3.28,0,0,0,1.15-2.46l2.62-32.64a2.67,2.67,0,0,0-.82-2.37A3.57,3.57,0,0,0,200.6,26.66Z"/><path class="cls-1" d="M221.18,38.07a21.3,21.3,0,0,0-5.46.71,17.26,17.26,0,0,0-4.64,1.91,3.54,3.54,0,0,0-1.26,1.23,2.82,2.82,0,0,0-.43,1.45A2.29,2.29,0,0,0,210,45a2.16,2.16,0,0,0,1.64.68,3.33,3.33,0,0,0,1.36-.32,16.53,16.53,0,0,1,7.37-2.13,5.3,5.3,0,0,1,4,1.31,5,5,0,0,1,1,4l-.05,1h-2a40.07,40.07,0,0,0-9.17.85,9.3,9.3,0,0,0-5,2.67,7.28,7.28,0,0,0-1.56,4.89,7,7,0,0,0,1.2,4,8.26,8.26,0,0,0,3.31,2.79,10.79,10.79,0,0,0,4.72,1,8.75,8.75,0,0,0,4.47-1.15,7.92,7.92,0,0,0,3.06-3.22l0,1a2.9,2.9,0,0,0,.73,2.32,3,3,0,0,0,2.27.9,3.5,3.5,0,0,0,2.43-.82,3.4,3.4,0,0,0,1-2.35l1-13a15.5,15.5,0,0,0,.06-1.58q0-5-2.68-7.42T221.18,38.07ZM225,54.45a7.23,7.23,0,0,1-2,4.66,5.8,5.8,0,0,1-4.33,1.83,4.69,4.69,0,0,1-3.14-1,3.22,3.22,0,0,1-1.18-2.62,3.31,3.31,0,0,1,.88-2.43,5.26,5.26,0,0,1,2.86-1.28,30.25,30.25,0,0,1,5.49-.38h1.53Z"/><path class="cls-1" d="M252.94,38.73h-4.58l.38-5a2.87,2.87,0,0,0-.74-2.37,3.24,3.24,0,0,0-2.42-.85,3.76,3.76,0,0,0-2.57.85,3.19,3.19,0,0,0-1.09,2.32l-.38,5h-2.79c-2.15,0-3.22.89-3.22,2.67a2.24,2.24,0,0,0,.77,1.83,3.21,3.21,0,0,0,2.12.63h2.68l-.87,11.46a13.26,13.26,0,0,0-.06,1.47,8.88,8.88,0,0,0,2.4,6.66q2.4,2.35,6.83,2.35a9.63,9.63,0,0,0,4.2-.65,2.44,2.44,0,0,0,1.2-2.35,2.75,2.75,0,0,0-.44-1.64,1.4,1.4,0,0,0-1.2-.6,11,11,0,0,0-1.12.08,8.83,8.83,0,0,1-1.17.08A3.64,3.64,0,0,1,248,59.58a4.93,4.93,0,0,1-1-3.33,5.78,5.78,0,0,1,.06-1l.87-11.41h4.7c2.11,0,3.16-.91,3.16-2.73a2.19,2.19,0,0,0-.74-1.78A3.19,3.19,0,0,0,252.94,38.73Z"/><path class="cls-1" d="M281.82,41.4a2.67,2.67,0,0,0-.74-1.88,2.57,2.57,0,0,0-2-.79H261.46c-2.15,0-3.22.91-3.22,2.73a2.2,2.2,0,0,0,.73,1.77,3.26,3.26,0,0,0,2.16.63h11.79L257.69,60.23a3.45,3.45,0,0,0-1.09,2.51,2.59,2.59,0,0,0,2.73,2.68h18.45c2.15,0,3.22-.93,3.22-2.78a2.13,2.13,0,0,0-.74-1.72,3.23,3.23,0,0,0-2.15-.63H265.55L280.73,44A3.8,3.8,0,0,0,281.82,41.4Z"/><path class="cls-1" d="M291.26,38.18a4.06,4.06,0,0,0-2.51.79,3.12,3.12,0,0,0-1.15,2.38l-1.74,21.12a2.82,2.82,0,0,0,.82,2.46,3.49,3.49,0,0,0,2.4.82,3.87,3.87,0,0,0,2.45-.82,3.25,3.25,0,0,0,1.15-2.46l1.75-21.12a2.74,2.74,0,0,0-.79-2.38A3.52,3.52,0,0,0,291.26,38.18Z"/><path class="cls-1" d="M291.92,26.06a4.23,4.23,0,0,0-2.95,1,3.32,3.32,0,0,0-1.09,2.62A3.41,3.41,0,0,0,289,32.31a4.8,4.8,0,0,0,5.89,0A3.41,3.41,0,0,0,296,29.67a3.31,3.31,0,0,0-1.11-2.62A4.25,4.25,0,0,0,291.92,26.06Z"/><path class="cls-1" d="M333.56,26.55a4.44,4.44,0,0,0-2.37.69,4.94,4.94,0,0,0-1.83,2l-12,23.64L309,29.23a4,4,0,0,0-1.47-2,4,4,0,0,0-2.3-.66A5.86,5.86,0,0,0,301.44,28a4.27,4.27,0,0,0-1.72,3.39,4.19,4.19,0,0,0,.33,1.58L311.29,62.8A4.25,4.25,0,0,0,313.15,65a5.71,5.71,0,0,0,3,.76,6.9,6.9,0,0,0,3.22-.79,5.18,5.18,0,0,0,2.29-2.27l16.05-29.8a4.4,4.4,0,0,0,.6-2.24,3.7,3.7,0,0,0-1.42-2.94A5,5,0,0,0,333.56,26.55Z"/><path class="cls-1" d="M346.45,38a5.61,5.61,0,0,0-3.55,1.14,4.66,4.66,0,0,0-1.7,3.39l-1.52,18.72a3.74,3.74,0,0,0,1.17,3.33,5.08,5.08,0,0,0,3.41,1.15,5.51,5.51,0,0,0,3.52-1.15,4.42,4.42,0,0,0,1.61-3.33l1.53-18.72a3.75,3.75,0,0,0-1.09-3.39A5,5,0,0,0,346.45,38Z"/><path class="cls-1" d="M347.1,24.86a5.72,5.72,0,0,0-3.9,1.26,4.23,4.23,0,0,0-1.45,3.38,4.31,4.31,0,0,0,1.45,3.41,6.54,6.54,0,0,0,7.8,0,4.31,4.31,0,0,0,1.45-3.41A4.22,4.22,0,0,0,351,26.12,5.79,5.79,0,0,0,347.1,24.86Z"/><path class="cls-1" d="M381.11,26.66a5.32,5.32,0,0,0-3.53,1.18,4.16,4.16,0,0,0-1.5,3l-.81,10.48a9.57,9.57,0,0,0-7.81-3.44,12,12,0,0,0-6.74,1.91,12.76,12.76,0,0,0-4.56,5.35,17.93,17.93,0,0,0-1.64,7.8A15.15,15.15,0,0,0,356,59.85a10.52,10.52,0,0,0,4,4.45,11.37,11.37,0,0,0,6,1.56,11,11,0,0,0,4.61-.93A8.48,8.48,0,0,0,374,62.25a3.91,3.91,0,0,0,1.37,2.54,4.6,4.6,0,0,0,3.06,1,5.09,5.09,0,0,0,3.54-1.23,4.7,4.7,0,0,0,1.53-3.25l2.35-30.18a3.94,3.94,0,0,0-1.17-3.2A4.89,4.89,0,0,0,381.11,26.66Zm-7.86,30.08a4.53,4.53,0,0,1-3.88,2A4.74,4.74,0,0,1,365.49,57a7.25,7.25,0,0,1-1.36-4.72A8.66,8.66,0,0,1,365.6,47a4.73,4.73,0,0,1,4-2,4.49,4.49,0,0,1,3.76,1.66,7.75,7.75,0,0,1,1.31,4.89A8.6,8.6,0,0,1,373.25,56.74Z"/><path class="cls-1" d="M402.45,37.91a13.51,13.51,0,0,0-7.1,1.91,13.21,13.21,0,0,0-4.94,5.27,15.91,15.91,0,0,0-1.77,7.56,13,13,0,0,0,1.83,7,12.28,12.28,0,0,0,5.13,4.61,16.94,16.94,0,0,0,7.61,1.64,20.69,20.69,0,0,0,4.67-.52A13.55,13.55,0,0,0,411.51,64,3.72,3.72,0,0,0,413,62.36a5,5,0,0,0,.49-2.18,3.72,3.72,0,0,0-.68-2.24A2.23,2.23,0,0,0,411,57a4.36,4.36,0,0,0-1.69.44,27.63,27.63,0,0,1-2.73,1,9.58,9.58,0,0,1-2.62.3q-5.3,0-5.95-4.91h14.25a2.37,2.37,0,0,0,2.56-2.57q0-6.33-3.24-9.85T402.45,37.91Zm-4.37,11.35a6.38,6.38,0,0,1,1.56-3.63,4.25,4.25,0,0,1,3.14-1.17,3.57,3.57,0,0,1,2.92,1.23,5.77,5.77,0,0,1,1.06,3.57Z"/><path class="cls-1" d="M445.68,44.19a11.92,11.92,0,0,0-5.13-4.64,17.38,17.38,0,0,0-7.81-1.64,16.68,16.68,0,0,0-7.83,1.75,12.35,12.35,0,0,0-5.21,5,15.76,15.76,0,0,0-1.86,7.84,13.47,13.47,0,0,0,1.8,7,11.93,11.93,0,0,0,5.13,4.67,17.52,17.52,0,0,0,7.81,1.64,16.8,16.8,0,0,0,7.83-1.75,12.44,12.44,0,0,0,5.21-5,15.82,15.82,0,0,0,1.86-7.89A13.31,13.31,0,0,0,445.68,44.19Zm-9.09,12.33a4.46,4.46,0,0,1-4.18,2.18,4.57,4.57,0,0,1-3.73-1.47,7,7,0,0,1-1.23-4.53,10.57,10.57,0,0,1,1.28-5.49,4.49,4.49,0,0,1,4.18-2.15,4.63,4.63,0,0,1,3.74,1.45A6.78,6.78,0,0,1,437.87,51,10.81,10.81,0,0,1,436.59,56.52Z"/><circle class="cls-1" cx="32.6" cy="5.18" r="5.18" transform="translate(-0.32 7.63) rotate(-13.28)"/><path class="cls-1" d="M22.67,31.22a6.86,6.86,0,0,0-6.86-6.86H6.86a6.86,6.86,0,1,0,0,13.71h9A6.86,6.86,0,0,0,22.67,31.22Z"/><path class="cls-1" d="M40.15,80.35H35.4a5.19,5.19,0,0,0,0,10.37h4.75a5.19,5.19,0,0,0,0-10.37Z"/></g></g></svg>